<!-- icon666.com - MILLIONS vector ICONS FREE --><svg id="Capa_1" enable-background="new 0 0 512 512" viewBox="0 0 512 512" xmlns="http://www.w3.org/2000/svg"><g><path d="m360.041 226.293c8.597-8.61 8.595-22.611-.005-31.21l-5.715-5.714 16.007-16.007c2.932-2.932 2.932-7.685 0-10.617l-5.352-5.352 30.824-30.824c2.932-2.932 2.932-7.685 0-10.617-2.931-2.93-7.685-2.93-10.616 0l-30.824 30.824-10.703-10.703 88.472-88.463v21.397l-23.805 23.804c-2.932 2.932-2.932 7.685 0 10.617 2.931 2.93 7.685 2.93 10.616 0l26.003-26.003c1.408-1.408 2.199-3.317 2.199-5.308v-42.629c0-7.346-7.507-10.615-12.815-5.308l-101.287 101.277-5.349-5.349c-3.539-2.931-7.077-2.931-10.616 0l-16.011 16.012-5.714-5.713c-10.401-8.618-20.803-8.618-31.205-.001l-37.484 37.483c-2.932 2.932-2.932 7.685 0 10.616 2.931 2.931 7.684 2.932 10.616.001l37.484-37.484c3.324-2.754 6.648-2.754 9.972.001l64.687 64.678c2.75 2.75 2.748 7.229 0 9.981l-27.035 27.033-26.673-26.673c-2.931-2.93-7.685-2.93-10.616 0-2.932 2.932-2.932 7.685 0 10.617l26.672 26.672-32.022 32.019-26.671-26.671c-2.931-2.93-7.685-2.93-10.616 0-2.932 2.932-2.932 7.685 0 10.617l26.67 26.67-10.702 10.702-74.657-74.657 30.375-30.375c2.932-2.932 2.932-7.685 0-10.617-2.931-2.93-7.684-2.93-10.616 0l-115.649 115.649c-9.063-10.98-25.247-17.392-37.287-5.353-8.805 8.805-8.805 23.131 0 31.936l26.669 26.669-33.373 33.373c-9.063-10.98-25.246-17.39-37.285-5.351-8.805 8.805-8.805 23.131 0 31.936l63.955 63.955c10.645 8.803 21.289 8.803 31.934 0 12.041-12.038 5.629-28.223-5.35-37.285l33.373-33.373 26.669 26.669c10.645 8.818 21.289 8.818 31.934 0 12.041-12.039 5.629-28.224-5.351-37.286l17.906-17.907c2.932-2.932 2.932-7.685 0-10.617-2.931-2.93-7.685-2.93-10.616 0l-17.903 17.904-74.659-74.652 74.658-74.657 74.656 74.656-10.703 10.702-26.67-26.67c-2.931-2.93-7.684-2.93-10.616 0-2.932 2.932-2.932 7.685 0 10.617l26.669 26.669-12.302 12.301c-2.931 2.931-2.932 7.685 0 10.616 3.539 2.932 7.077 2.932 10.616.001zm-37.658-90.261 32.021 32.021-10.7 10.7-32.023-32.019zm-230.506 337.184c-2.951 2.953-7.752 2.951-10.702 0l-63.955-63.955c-2.951-2.95-2.951-7.752 0-10.703 3.567-2.955 7.135-2.954 10.702.001l63.955 63.956c2.956 3.567 2.956 7.134 0 10.701zm-5.35-37.285-32.022-32.022 33.373-33.373 32.022 32.022zm91.977-6.704c-3.567 2.955-7.135 2.954-10.702-.001l-106.593-106.592c-2.955-3.568-2.955-7.135 0-10.703 3.567-2.955 7.135-2.954 10.702.001l106.592 106.593c2.956 3.568 2.956 7.135.001 10.702z" fill="#000000" style="fill: rgb(241, 154, 86);"></path><path d="m436.645 118.487c-4.958 8.134-32.421 47.876-32.421 66.446 0 21.283 17.314 38.597 38.597 38.597 21.282 0 38.597-17.314 38.597-38.597 0-18.57-27.427-58.334-32.42-66.446-3.172-5.154-8.677-6.029-12.353 0zm29.76 66.447c0 13.004-10.579 23.584-23.583 23.584s-23.584-10.58-23.584-23.584c0-8.596 12.317-31.051 23.585-48.618 11.266 17.562 23.582 40.012 23.582 48.618z" fill="#000000" style="fill: rgb(241, 154, 86);"></path><path d="m355.603 297.606c-18.752 5.378-21.46 29.157-17.29 44.721 4.139 15.446 18.495 35.139 37.334 30.084 18.843-5.048 21.413-29.145 17.29-44.721-4.73-17.865-17.992-35.631-37.334-30.084zm16.158 60.303c-7.951 2.086-15.466-9.595-18.946-19.469-2.252-6.39-3.142-23.361 6.673-26.333 9.301-2.817 16.458 11.48 18.946 19.469 2.015 6.468 3.069 23.777-6.673 26.333z" fill="#000000" style="fill: rgb(241, 154, 86);"></path><path d="m447.836 297.606c-18.841-5.054-33.164 14.522-37.333 30.084-4.171 15.563-1.553 39.673 17.289 44.721 18.839 5.054 33.196-14.636 37.334-30.084 4.171-15.564 1.552-39.673-17.29-44.721zm2.788 40.835c-3.364 11.546-9.62 22.49-18.947 19.469-8.602-2.786-9.857-14.995-6.674-26.333 2.489-8.864 9.575-22.043 18.946-19.469 8.087 2.221 9.442 13.106 6.675 26.333z" fill="#000000" style="fill: rgb(241, 154, 86);"></path><path d="m301.333 348.73c-13.155 7.596-10.745 27.43-4.524 38.205 6.211 10.758 22.216 22.767 35.349 15.185 11.179-6.454 13.167-23.236 4.524-38.205-8.641-14.968-24.166-21.636-35.349-15.185zm23.318 40.388c-3.921 2.114-11.137-3.03-14.84-9.689-4.011-7.214-4.88-15.094-.972-17.697 4.3-2.863 10.973 2.308 14.84 9.689 4.481 8.55 4.474 14.973.972 17.697z" fill="#000000" style="fill: rgb(241, 154, 86);"></path><path d="m471.281 402.12c12.877 7.435 29.254-4.627 35.349-15.185 8.642-14.97 6.654-31.75-4.525-38.205-11.179-6.454-26.707.217-35.348 15.185-8.642 14.968-6.655 31.75 4.524 38.205zm8.478-30.699c4.659-8.424 11.541-11.927 14.84-9.689 2.701 1.832 3.855 9.338-.971 17.697s-12.012 11.322-14.84 9.689c-2.827-1.632-3.855-9.338.971-17.697z" fill="#000000" style="fill: rgb(241, 154, 86);"></path><path d="m354.074 393.973c-24.341 15.97-48.69 48.675-30.484 78.521 12.961 21.247 42.923 17.627 59.463 3.61 11.371-8.203 25.974-8.204 37.342.003 16.326 13.836 46.23 17.752 59.323-3.121 18.693-29.804-6.076-63.086-30.352-79.012-29.391-19.285-65.903-19.283-95.292-.001zm113.814 41.864c11.737 26.327-12.621 50.397-37.951 28.675-14.761-12.658-41.64-12.723-56.424-.004-24.09 20.725-50.614-.044-38.008-28.578 26.804-60.674 109.003-52.539 132.383-.093z" fill="#000000" style="fill: rgb(241, 154, 86);"></path></g></svg>