<!-- icon666.com - MILLIONS vector ICONS FREE --><svg id="Capa_1" enable-background="new 0 0 510.272 510.272" viewBox="0 0 510.272 510.272" xmlns="http://www.w3.org/2000/svg"><g><path d="m363.315 101.915c1.179.699 2.501 1.047 3.823 1.047 1.354 0 2.71-.367 3.908-1.099 37.824-23.094 49.8-39.037 52.57-43.372 3.901-6.107 5.963-13.18 5.963-20.455.001-20.973-17.063-38.036-38.037-38.036-9.098 0-17.639 3.149-24.404 8.838-6.765-5.689-15.307-8.838-24.404-8.838-20.974 0-38.038 17.063-38.038 38.038 0 7.274 2.062 14.347 5.963 20.454 3.779 5.915 16.472 21.986 52.656 43.423zm-20.581-86.915c7.3 0 14.012 3.351 18.414 9.194 1.418 1.881 3.635 2.987 5.99 2.987s4.573-1.106 5.99-2.987c4.402-5.843 11.114-9.194 18.414-9.194 12.703 0 23.038 10.334 23.038 23.038 0 4.408-1.246 8.688-3.604 12.38-4.37 6.841-18.43 20.266-43.894 36.259-31.29-19.108-41.38-32.502-43.781-36.26-2.358-3.691-3.604-7.972-3.604-12.379-.001-12.704 10.334-23.038 23.037-23.038z" fill="#000000" style="fill: rgb(241, 154, 86);"></path><path d="m456.597 458.752h-54.491v-67.684c0-4.142-3.358-7.5-7.5-7.5s-7.5 3.358-7.5 7.5v67.684h-264.803v-67.683c0-4.142-3.358-7.5-7.5-7.5s-7.5 3.358-7.5 7.5v67.683h-53.628c-10.515 0-19.07 8.555-19.07 19.069v16.356c0 8.874 7.22 16.094 16.094 16.094h408.874c8.874 0 16.094-7.22 16.094-16.094v-16.356c0-10.514-8.555-19.069-19.07-19.069zm4.07 35.426c0 .603-.491 1.094-1.094 1.094h-408.874c-.603 0-1.094-.491-1.094-1.094v-16.356c0-2.244 1.826-4.069 4.07-4.069h402.922c2.244 0 4.07 1.826 4.07 4.069z" fill="#000000" style="fill: rgb(241, 154, 86);"></path><path d="m100.925 280.638c1.726 1.967 3.93 3.356 6.378 4.082v76.349c0 4.142 3.358 7.5 7.5 7.5s7.5-3.358 7.5-7.5v-80.977l132.499-116.228c1.101-.965 2.761-.966 3.862-.003l128.441 112.265v84.942c0 4.142 3.358 7.5 7.5 7.5s7.5-3.358 7.5-7.5v-80.276c2.472-.725 4.695-2.126 6.431-4.113l17.883-20.46c4.966-5.682 4.384-14.346-1.298-19.313l-29.42-25.715c.001-.054.008-.107.008-.162v-67.928c0-7.572-6.16-13.731-13.731-13.731h-29.68c-7.572 0-13.731 6.16-13.731 13.731v18.151l-70.078-61.252c-6.74-5.891-16.897-5.882-23.625.021l-160.594 140.874c-2.748 2.411-4.394 5.748-4.632 9.396-.239 3.648.958 7.171 3.369 9.919zm252.641-136.267h27.143v53.718l-27.143-23.725zm-98.811-33.073c1.101-.966 2.761-.966 3.862-.003l155.645 136.043-16.081 18.399c-.122-.067-.251-.122-.378-.182l-129.266-112.987c-6.74-5.891-16.896-5.882-23.626.02l-133.215 116.856c-.151.069-.303.137-.448.216l-16.1-18.355z" fill="#000000" style="fill: rgb(241, 154, 86);"></path><path d="m352.211 343.832c0-20.997-13.533-38.08-30.168-38.08-1.765 0-3.492.203-5.174.572.222-2.018.345-4.076.345-6.171 0-24.393-15.581-44.238-34.731-44.238-11.028 0-20.865 6.589-27.232 16.829-6.367-10.241-16.204-16.829-27.232-16.829-19.151 0-34.732 19.845-34.732 44.238 0 2.187.13 4.336.372 6.439-2.032-.547-4.136-.84-6.295-.84-16.634 0-30.167 17.083-30.167 38.08 0 15.226 7.119 28.387 17.374 34.476-.545 3.826-.835 7.712-.835 11.594 0 11.474 4.911 17.77 9.03 21.03 8.313 6.581 21.762 7.741 39.973 3.446 21.27-5.016 43.756-5.016 65.026 0 7.179 1.693 13.616 2.539 19.293 2.538 8.722 0 15.644-1.997 20.68-5.983 4.12-3.261 9.03-9.557 9.03-21.031 0-4.098-.32-8.189-.926-12.223 9.711-6.334 16.369-19.124 16.369-33.847zm-69.728-72.917c10.695 0 19.731 13.389 19.731 29.238 0 15.848-9.036 29.237-19.731 29.237s-19.732-13.389-19.732-29.237c.001-15.849 9.037-29.238 19.732-29.238zm-54.463 0c10.696 0 19.732 13.389 19.732 29.238 0 15.848-9.036 29.237-19.732 29.237-10.695 0-19.732-13.389-19.732-29.237.001-15.849 9.037-29.238 19.732-29.238zm-40.655 49.836c8.222 0 15.168 10.569 15.168 23.08s-6.946 23.081-15.168 23.081-15.167-10.57-15.167-23.081c0-12.51 6.946-23.08 15.167-23.08zm131.062 78.42c-2.553 2.022-9.486 4.789-27.219.607-23.522-5.547-48.389-5.547-71.911 0-17.733 4.182-24.666 1.415-27.22-.607-.826-.654-3.34-2.644-3.34-9.27 0-2.699.173-5.4.496-8.069 15.767-1.222 28.301-17.795 28.301-38 0-.51-.015-1.015-.031-1.521 3.32 1.347 6.852 2.079 10.518 2.079 11.028 0 20.865-6.589 27.232-16.829 6.367 10.24 16.203 16.829 27.232 16.829 3.263 0 6.419-.589 9.415-1.665-.008.369-.022.736-.022 1.107 0 20.67 13.117 37.534 29.394 38.056.318 2.653.497 5.331.497 8.014-.002 6.625-2.516 8.615-3.342 9.269zm3.617-32.259c-8.222 0-15.168-10.57-15.168-23.081s6.946-23.08 15.168-23.08 15.168 10.569 15.168 23.08c-.001 12.511-6.946 23.081-15.168 23.081z" fill="#000000" style="fill: rgb(241, 154, 86);"></path></g></svg>