<!-- icon666.com - MILLIONS vector ICONS FREE --><svg version="1.1" id="Capa_1" xmlns="http://www.w3.org/2000/svg" xmlns:xlink="http://www.w3.org/1999/xlink" x="0px" y="0px" viewBox="0 0 496.001 496.001" style="enable-background:new 0 0 496.001 496.001;" xml:space="preserve"><g><g><g><path d="M496.001,118.08c0.022-22.941-9.313-44.898-25.848-60.8l-22.152-21.52V8c0-4.418-3.582-8-8-8h-192c-4.418,0-8,3.582-8,8 v28.688l-22.224,22.224c-16.561,16.467-25.843,38.877-25.776,62.232V213.6c-5.541,2.763-10.445,6.651-14.4,11.416 c-17.871-3.909-36.453,2.222-48.488,16c-3.398-0.679-6.855-1.019-10.32-1.016c-25.8,0-46.792,17.944-46.792,40h16 c0-16.104,20.704-28.864,42.072-22.208l6.072,1.88l3.2-5.48c8.786-12.486,24.832-17.562,39.2-12.4l6.064,1.88l3.2-5.48 c6.235-9.247,16.807-14.615,27.952-14.192c11.132-0.412,21.686,4.955,27.912,14.192l3.2,5.48l6.072-1.88 c12.052-4.067,25.359-1.372,34.88,7.064l5.496,5.184l5.488-5.184c6.467-5.82,14.893-8.983,23.592-8.856 c16.976,0,30.784,10.768,30.784,24v8h8c17,0,30.816,10.768,30.816,24h16c0-20-17.208-36.568-39.624-39.528 c-4.257-15.433-16.729-27.228-32.376-30.616V144h112v148.152c-0.424-0.44-0.8-0.92-1.224-1.352 c-3.742-3.755-9.821-3.766-13.576-0.024c-0.008,0.008-0.016,0.016-0.024,0.024c-28.397,28.675-67.107,44.767-107.464,44.672 h-155.44c-40.368,0.102-79.09-15.99-107.496-44.672c-3.742-3.756-9.821-3.766-13.576-0.024c-0.008,0.008-0.016,0.016-0.024,0.024 C17.557,322.394-0.145,365.302,0.001,410v78c0,4.418,3.582,8,8,8h480c4.418,0,8-3.582,8-8v-78c0-0.672-0.088-1.328-0.096-2h0.096 V118.08z M454.081,64H269.193l-7.896-16h176.344L454.081,64z M256.001,16h176v16h-176V16z M272.001,224.616 c-5.993-0.893-12.095-0.749-18.04,0.424c-9.556-11.091-23.563-17.34-38.2-17.04c-2.598,0.022-5.191,0.228-7.76,0.616v-87.472 c-0.053-19.108,7.541-37.444,21.088-50.92l16.96-16.96l20.168,40.888c3.796,7.717,5.775,16.2,5.784,24.8V224.616z M480.001,480 h-464v-70c-0.119-38.278,14.228-75.188,40.168-103.336c30.949,28.912,71.751,44.946,114.104,44.84h155.456 c42.345,0.118,83.144-15.902,114.096-44.8c25.938,28.134,40.288,65.03,40.176,103.296V480z M480.001,338.48 c-4.464-9.551-9.821-18.658-16-27.2V136c0-4.418-3.582-8-8-8h-128c-4.418,0-8,3.582-8,8v88.176 c-9.515,0.35-18.746,3.336-26.664,8.624c-1.711-1.151-3.494-2.193-5.336-3.12V118.928c-0.015-11.047-2.557-21.943-7.432-31.856 L277.081,80h191.264c7.606,11.242,11.666,24.507,11.656,38.08V338.48z" fill="#000000" style="fill: rgb(241, 154, 86);"></path><path d="M294.641,299.672l6.56-1.6c1.614-0.411,3.271-0.629,4.936-0.648c12.268,0.206,22.051,10.308,21.864,22.576h16 c0.261-21.016-16.564-38.265-37.58-38.526c-0.901-0.011-1.801,0.01-2.7,0.062c-6.884-10.88-18.846-17.492-31.72-17.536v16 c8.765,0.074,16.638,5.377,20,13.472L294.641,299.672z" fill="#000000" style="fill: rgb(241, 154, 86);"></path><path d="M167.105,280c2.487,0.03,4.965,0.297,7.4,0.8l3-15.72c-3.426-0.677-6.908-1.028-10.4-1.048 C141.137,264,120.001,281.944,120.001,304h16C136.001,290.768,149.953,280,167.105,280z" fill="#000000" style="fill: rgb(241, 154, 86);"></path><path d="M384.001,368h-48v16h-176v-16h-48v16h-32v64h32v16h48v-16h176v16h48v-16h32v-64h-32V368z M112.001,432h-16v-32h16V432z M144.001,448h-16v-64h16V448z M336.001,432h-176v-32h176V432z M368.001,448h-16v-64h16V448z M400.001,400v32h-16v-32H400.001z" fill="#000000" style="fill: rgb(241, 154, 86);"></path></g></g></g></svg>