<svg width="45" height="45" viewBox="0 0 45 45" fill="none" xmlns="http://www.w3.org/2000/svg">
<circle cx="22.5" cy="22.5" r="22.5" fill="#F19A56"/>
<path d="M32.625 15.546C32.625 13.8614 31.1386 12.375 29.454 12.375H16.671C14.9864 12.375 13.5 13.8614 13.5 15.546V28.329C13.5 30.0136 14.9864 31.5 16.671 31.5H23.112V24.2662H20.7338V21.0952H23.112V19.807C23.112 17.6269 24.6975 15.7442 26.6794 15.7442H29.2558V18.9151H26.6794C26.3821 18.9151 26.0848 19.2124 26.0848 19.807V21.0952H29.2558V24.2662H26.0848V31.5H29.454C31.1386 31.5 32.625 30.0136 32.625 28.329V15.546Z" fill="white"/>
</svg>
