<svg width="45" height="45" viewBox="0 0 45 45" fill="none" xmlns="http://www.w3.org/2000/svg">
<circle cx="22.5" cy="22.5" r="22.5" fill="#F19A56"/>
<path d="M29.9034 13.5H16.2216C14.6769 13.5 13.5 14.6769 13.5 16.2216V29.9034C13.5 31.4481 14.6769 32.625 16.2216 32.625H29.9034C31.4481 32.625 32.625 31.4481 32.625 29.9034V16.2216C32.625 14.6769 31.4481 13.5 29.9034 13.5ZM23.0625 28.8C26.2255 28.8 28.8 26.299 28.8 23.2832C28.8 22.7683 28.7264 22.1798 28.5793 21.7385H30.1976V29.5356C30.1976 29.9034 29.9034 30.2712 29.462 30.2712H16.663C16.2952 30.2712 15.9274 29.9769 15.9274 29.5356V21.6649H17.6192C17.4721 22.1798 17.3986 22.6947 17.3986 23.2096C17.325 26.299 19.8995 28.8 23.0625 28.8ZM23.0625 26.5933C21.0029 26.5933 19.3846 24.975 19.3846 22.9889C19.3846 21.0029 21.0029 19.3846 23.0625 19.3846C25.1221 19.3846 26.7404 21.0029 26.7404 22.9889C26.7404 25.0486 25.1221 26.5933 23.0625 26.5933ZM30.124 18.7226C30.124 19.1639 29.7563 19.5317 29.3149 19.5317H27.2553C26.8139 19.5317 26.4462 19.1639 26.4462 18.7226V16.7365C26.4462 16.2952 26.8139 15.9274 27.2553 15.9274H29.3149C29.7563 15.9274 30.124 16.2952 30.124 16.7365V18.7226Z" fill="white"/>
</svg>
