<!-- icon666.com - MILLIONS vector ICONS FREE --><svg id="Layer_1" enable-background="new 0 0 512.004 512.004" viewBox="0 0 512.004 512.004" xmlns="http://www.w3.org/2000/svg"><g><path d="m409.264 137h-38.529c-3.946 0-6.796 3.921-5.42 7.62 3.67 9.873 14.311 16.89 20.355 20.208 2.703 1.483 5.957 1.483 8.659 0 6.044-3.318 16.685-10.335 20.355-20.208 1.376-3.699-1.474-7.62-5.42-7.62z"></path><path d="m512 134c0-13.845-2.737-27.244-8.149-39.943 3.274-11.535 7.014-28.779 7.265-47.977.129-9.701-.798-20.29-2.608-29.816-1.061-5.577-4.441-10.44-9.299-13.378-4.856-2.938-10.733-3.673-16.166-2.022-23.953 7.281-41.312 18.466-53.234 28.7-12.133-3.696-24.799-5.564-37.809-5.564-12.975 0-25.61 1.858-37.715 5.537-11.922-10.225-29.271-21.399-53.199-28.673-5.432-1.65-11.309-.917-16.166 2.022-4.857 2.938-8.238 7.801-9.298 13.378-1.811 9.518-2.737 20.105-2.61 29.813.251 19.117 3.961 36.296 7.214 47.798-5.463 12.753-8.226 26.212-8.226 40.125 0 17.638 4.56 34.316 12.644 49.106-7.992 6.941-17.798 10.894-27.644 10.894h-29c-81.607 0-148 66.393-148 148v99.002c-9.542-1.927-18.313-6.605-25.354-13.646-9.443-9.444-14.644-22-14.643-35.354l.009-169.2c.637-28.028 24.558-50.802 53.41-50.802 11.046 0 20-8.954 20-20s-8.954-20-20-20c-50.552 0-92.453 40.469-93.405 90.213-.003.127-.004.254-.004.382l-.009 169.404c-.001 24.04 9.359 46.641 26.357 63.64 16.422 16.423 38.078 25.691 61.204 26.302 2.732 4.818 6.161 9.275 10.259 13.232 11.239 10.851 26.218 16.827 42.176 16.827h105.869c.038 0 .076.003.114.003.034 0 .068-.003.102-.003h60.915c11.046 0 20-8.954 20-20s-8.954-20-20-20h-29.293c11.239-26.943 16.712-51.536 16.29-73.387-.977-50.478-34.62-80.613-89.997-80.613-11.046 0-20 8.954-20 20s8.954 20 20 20c44.103 0 49.66 23.62 50.004 41.387.274 14.174-3.191 37.885-20.217 72.614h-93.787c-11.402 0-20-8.168-20-19v-111.001c0-59.551 48.448-108 108-108h29c19.101 0 37.831-7.205 52.88-19.87 21.483 18.511 50.38 29.87 82.12 29.87 8.217 0 16.243-.763 24-2.212v26.961c0 24.859-6.456 49.444-18.67 71.095l-14.736 26.125c-6.931 12.285-10.594 26.233-10.594 40.339v42.692c0 17.154 6.738 33.128 18.973 44.979 11.998 11.621 27.988 18.021 45.027 18.021 11.046 0 20-8.954 20-20s-8.954-20-20-20c-13.458 0-24-10.103-24-23v-42.692c0-7.233 1.878-14.386 5.433-20.686l14.737-26.125c15.59-27.637 23.83-59.016 23.83-90.748v-41.755c33.621-19.512 56-53.896 56-92.994zm-120 70c-44.112 0-80-31.402-80-70 0-10.197 2.459-20.03 7.311-29.224 2.542-4.819 3.009-10.468 1.29-15.639-2.549-7.671-6.742-22.64-7.487-39.882 9.896 5.671 16.989 11.885 21.782 16.98 5.736 6.098 14.663 7.977 22.37 4.711 10.878-4.608 22.565-6.946 34.734-6.946 12.198 0 23.909 2.348 34.809 6.978 7.719 3.278 16.659 1.396 22.398-4.715 4.793-5.104 11.892-11.329 21.808-17.009-.746 17.306-4.967 32.322-7.531 40.016-1.721 5.164-1.264 10.805 1.267 15.624 4.809 9.16 7.249 18.953 7.249 29.106 0 38.598-35.888 70-80 70z"></path></g></svg>