<svg width="174" height="75" viewBox="0 0 174 75" fill="none" xmlns="http://www.w3.org/2000/svg">
<g clip-path="url(#clip0_140_115)">
<path d="M48.2271 37.89C48.1112 37.3132 47.9944 36.7092 47.8807 36.0438C47.8807 36.0438 47.8674 34.4553 46.9408 33.1741C46.4132 33.6979 45.5014 34.903 44.5683 36.837L37.7946 50.8647C37.3743 51.7367 37.3484 52.7562 37.7288 53.5934C38.0443 54.2922 38.6106 54.7888 39.3259 54.9883C41.4169 55.575 43.5478 55.8247 45.8435 55.7042C47.5576 55.6163 49.0339 53.7899 48.9372 51.8739L48.2366 37.9804C48.2346 37.9515 48.2301 37.923 48.2271 37.89Z" fill="#F19A56"/>
<path d="M37.5006 75C56.3784 75 71.7357 59.641 71.7357 40.7653C71.7357 26.7984 63.3245 14.7671 51.3053 9.44727C51.2822 9.51677 51.2743 9.58848 51.2493 9.65719C50.9123 11.0499 50.4497 12.3489 49.9052 13.559C60.228 18.2866 67.4289 28.6878 67.4289 40.7631C67.4289 47.4763 65.1821 53.6593 61.4353 58.6568C58.9452 56.5349 56.5263 54.1822 54.7079 51.3547C52.3782 47.7291 50.9248 45.9232 49.8292 43.3785L50.2556 51.8098C50.3885 54.463 48.3566 56.9012 45.9103 57.0277C45.5245 57.0453 45.1478 57.0558 44.779 57.0558C42.8018 57.0558 40.8467 56.789 38.9647 56.2623C37.8663 55.9563 36.9983 55.202 36.5195 54.1402C35.9817 52.9499 36.0115 51.512 36.6012 50.2921L43.3736 36.2633C43.6522 35.6877 44.7848 33.4382 45.9974 32.2674C45.9611 32.2427 45.9339 32.2114 45.8946 32.1873C44.2462 31.18 42.8179 32.4541 38.3313 32.4053C38.0313 31.7122 37.3431 31.2246 36.5396 31.2246C35.8454 31.2246 35.2395 31.5914 34.8941 32.1386C29.0204 31.3277 23.7593 28.4473 22.296 27.5905C22.303 27.5259 22.3207 27.4626 22.3207 27.3954C22.3207 26.3297 21.2114 25.467 19.8426 25.467C18.4727 25.467 17.3618 26.3297 17.3618 27.3954C17.3618 28.0996 17.8558 28.7091 18.5791 29.0454C18.6907 31.9044 19.939 41.4082 31.2342 44.1339L28.9617 47.942C28.2857 49.0746 28.1353 50.3856 28.5498 51.5374C28.9329 52.6028 29.7465 53.4045 30.8411 53.7954C32.0074 54.2129 33.2639 54.6068 34.5743 54.9711C34.5743 54.9711 36.4806 59.6953 37.9387 62.4032V70.6726C37.7895 70.6734 37.6461 70.6955 37.4979 70.6955C20.9948 70.6955 7.56749 57.2689 7.56749 40.7655C7.56749 29.101 14.2892 19.0013 24.049 14.0642C23.2013 12.2496 22.7038 10.7719 22.4725 10.0126C11.1092 15.5878 3.26465 27.2746 3.26465 40.7653C3.26465 59.641 18.6228 75 37.5006 75ZM39.2623 64.6343C40.4327 66.4275 41.8188 68.1343 43.4726 69.644V70.094C42.1027 70.3726 40.6906 70.5225 39.2623 70.6067V64.6343Z" fill="#F19A56"/>
<path d="M24.818 8.74041C24.818 8.74041 27.8136 20.1359 36.542 23.4844C36.542 23.4844 45.8866 18.7025 48.2073 8.89778C48.2124 8.87926 48.2124 8.86517 48.2162 8.84601C48.4969 8.11887 48.6669 7.33426 48.6669 6.50643C48.6667 2.91268 45.7542 0 42.1604 0C39.7473 0 37.6645 1.3289 36.542 3.28139C35.4189 1.33032 33.3368 0 30.9226 0C27.3287 0 24.4165 2.91268 24.4165 6.50659C24.4165 7.29262 24.5769 8.03607 24.8321 8.73281C24.8313 8.73408 24.818 8.74041 24.818 8.74041ZM31.8583 12.5191L35.9368 14.0256L39.6097 6.2498C39.9695 5.48767 40.9338 4.98851 41.7629 5.13447L43.0817 5.3672C43.9122 5.51379 44.1983 6.19661 43.7216 6.89114L36.2081 17.8518C35.7305 18.5477 34.9573 18.5477 34.4777 17.8548L31.2943 13.2469C30.8146 12.5523 31.0659 12.2279 31.8583 12.5191Z" fill="#F19A56"/>
</g>
<path d="M104.49 51.848C104.16 52.552 103.632 53.19 102.906 53.762C102.202 54.356 101.443 54.653 100.629 54.653C99.8152 54.653 99.0122 54.422 98.2202 53.96C97.4502 53.52 96.8232 53.069 96.3392 52.607C95.8552 52.145 95.1622 51.43 94.2602 50.462C93.3802 49.494 92.7752 48.845 92.4452 48.515C91.2792 49.769 89.8602 50.396 88.1882 50.396C87.0882 50.396 86.1862 50.121 85.4822 49.571C84.7782 49.021 84.4262 48.295 84.4262 47.393C84.4262 46.469 84.8002 45.688 85.5482 45.05C86.3182 44.39 87.3412 44.06 88.6172 44.06C89.3432 44.06 90.0692 44.181 90.7952 44.423C91.0152 43.345 91.1912 41.816 91.3232 39.836C89.9812 39.594 88.8812 39.033 88.0232 38.153C87.1872 37.251 86.7692 36.008 86.7692 34.424C86.7692 33.808 86.8682 33.027 87.0662 32.081C87.3082 32.037 87.6272 32.015 88.0232 32.015C88.4192 32.015 88.8262 32.169 89.2442 32.477C88.9582 33.005 88.8152 33.709 88.8152 34.589C88.8152 36.371 89.6842 37.471 91.4222 37.889C91.5102 35.491 91.6422 33.808 91.8182 32.84C91.9942 31.85 92.3022 30.915 92.7422 30.035C93.1822 29.133 93.9082 28.33 94.9202 27.626C95.9542 26.922 97.2632 26.57 98.8472 26.57C100.431 26.57 101.652 27.043 102.51 27.989C103.39 28.913 103.83 30.013 103.83 31.289C103.83 33.071 103.005 34.875 101.355 36.701C99.7272 38.505 97.7032 39.605 95.2832 40.001C94.6012 42.971 94.1062 44.984 93.7982 46.04C94.1502 46.304 94.7882 46.799 95.7122 47.525C96.6582 48.251 97.3732 48.79 97.8572 49.142C98.3632 49.472 99.0342 49.802 99.8702 50.132C100.728 50.484 101.553 50.66 102.345 50.66L103.731 50.561C104.105 51.089 104.358 51.518 104.49 51.848ZM101.619 31.586C101.619 30.926 101.443 30.387 101.091 29.969C100.761 29.551 100.31 29.342 99.7382 29.342C98.2642 29.342 97.1862 30.948 96.5042 34.16C96.1302 35.92 95.8662 37.196 95.7122 37.988C97.3402 37.702 98.7262 36.899 99.8702 35.579C101.036 34.237 101.619 32.906 101.619 31.586ZM87.8912 47.921C88.6612 47.921 89.3432 47.503 89.9372 46.667C89.2992 46.271 88.6612 46.073 88.0232 46.073C87.0772 46.073 86.6042 46.381 86.6042 46.997C86.6042 47.305 86.7362 47.536 87.0002 47.69C87.2642 47.844 87.5612 47.921 87.8912 47.921ZM101.708 44.291C101.708 41.541 102.533 39.374 104.183 37.79C105.855 36.184 107.747 35.381 109.859 35.381C111.157 35.381 112.224 35.7 113.06 36.338C113.896 36.976 114.314 37.834 114.314 38.912C114.314 39.968 114.039 40.859 113.489 41.585C112.961 42.311 112.312 42.872 111.542 43.268C109.98 44.038 108.55 44.522 107.252 44.72L106.46 44.819C106.614 46.887 107.461 47.921 109.001 47.921C109.529 47.921 110.09 47.789 110.684 47.525C111.278 47.261 111.74 46.997 112.07 46.733L112.565 46.337L113.357 47.393C113.181 47.635 112.829 47.954 112.301 48.35C111.773 48.746 111.278 49.076 110.816 49.34C109.54 50.044 108.143 50.396 106.625 50.396C105.107 50.396 103.908 49.857 103.028 48.779C102.148 47.701 101.708 46.205 101.708 44.291ZM106.427 43.202C107.549 43.004 108.44 42.531 109.1 41.783C109.76 41.035 110.09 40.067 110.09 38.879C110.09 37.691 109.738 37.097 109.034 37.097C108.198 37.097 107.549 37.812 107.087 39.242C106.647 40.65 106.427 41.97 106.427 43.202ZM125.316 47.756C125.448 47.756 125.888 47.558 126.636 47.162L126.966 46.997L127.56 48.152C127.384 48.328 127.153 48.537 126.867 48.779C126.581 49.021 126.02 49.351 125.184 49.769C124.37 50.187 123.589 50.396 122.841 50.396C122.115 50.396 121.521 50.209 121.059 49.835C120.619 49.439 120.256 48.801 119.97 47.921L119.211 45.578C117.561 47.36 116.329 48.955 115.515 50.363C115.361 50.363 114.976 50.253 114.36 50.033C113.766 49.813 113.326 49.626 113.04 49.472C113.678 48.35 115.515 46.359 118.551 43.499C117.781 41.189 117.165 39.572 116.703 38.648C116.615 38.472 116.087 37.845 115.119 36.767L115.218 36.371L117.231 35.942C118.397 35.766 119.431 35.656 120.333 35.612C120.795 35.986 121.158 36.679 121.422 37.691C121.708 38.703 121.928 39.473 122.082 40.001C123.71 38.219 124.777 36.723 125.283 35.513C125.899 35.601 126.504 35.832 127.098 36.206L127.395 36.371C126.625 37.823 125.063 39.726 122.709 42.08C122.951 42.916 123.171 43.609 123.369 44.159C124.205 46.557 124.854 47.756 125.316 47.756ZM138.735 39.935C138.471 41.937 138.339 43.488 138.339 44.588C138.339 45.688 138.68 46.238 139.362 46.238C140.044 46.238 140.847 45.732 141.771 44.72C142.717 43.708 143.597 42.322 144.411 40.562C145.225 38.802 145.72 37.02 145.896 35.216C145.896 33.39 144.961 31.311 143.091 28.979C143.531 28.033 144.103 27.186 144.807 26.438C145.511 25.668 146.105 25.14 146.589 24.854L147.315 24.392C148.129 24.392 148.822 24.986 149.394 26.174C149.988 27.34 150.285 28.638 150.285 30.068C150.285 32.532 149.57 35.37 148.14 38.582C146.71 41.794 144.928 44.566 142.794 46.898C140.66 49.23 138.691 50.396 136.887 50.396C135.721 50.396 134.808 49.978 134.148 49.142C133.51 48.284 133.191 47.261 133.191 46.073C133.191 44.885 133.334 42.938 133.62 40.232C131.574 40.034 129.88 39.341 128.538 38.153C127.218 36.943 126.558 35.469 126.558 33.731C126.558 31.971 127.372 30.343 129 28.847C130.65 27.329 132.531 26.57 134.643 26.57C137.877 26.57 139.494 28.583 139.494 32.609C139.494 33.621 139.417 34.655 139.263 35.711L139.032 37.658C140.132 37.394 141.012 37.075 141.672 36.701L142.035 36.503C142.497 36.965 142.739 37.669 142.761 38.615C141.397 39.253 140.055 39.693 138.735 39.935ZM134.346 32.642C134.346 31.498 134.225 30.684 133.983 30.2C133.741 29.694 133.257 29.441 132.531 29.441C131.827 29.441 130.991 29.859 130.023 30.695C129.077 31.509 128.604 32.532 128.604 33.764C128.604 34.974 129.11 35.997 130.122 36.833C131.156 37.647 132.399 38.054 133.851 38.054C134.181 35.59 134.346 33.786 134.346 32.642ZM149.661 44.291C149.661 41.541 150.486 39.374 152.136 37.79C153.808 36.184 155.7 35.381 157.812 35.381C159.11 35.381 160.177 35.7 161.013 36.338C161.849 36.976 162.267 37.834 162.267 38.912C162.267 39.968 161.992 40.859 161.442 41.585C160.914 42.311 160.265 42.872 159.495 43.268C157.933 44.038 156.503 44.522 155.205 44.72L154.413 44.819C154.567 46.887 155.414 47.921 156.954 47.921C157.482 47.921 158.043 47.789 158.637 47.525C159.231 47.261 159.693 46.997 160.023 46.733L160.518 46.337L161.31 47.393C161.134 47.635 160.782 47.954 160.254 48.35C159.726 48.746 159.231 49.076 158.769 49.34C157.493 50.044 156.096 50.396 154.578 50.396C153.06 50.396 151.861 49.857 150.981 48.779C150.101 47.701 149.661 46.205 149.661 44.291ZM154.38 43.202C155.502 43.004 156.393 42.531 157.053 41.783C157.713 41.035 158.043 40.067 158.043 38.879C158.043 37.691 157.691 37.097 156.987 37.097C156.151 37.097 155.502 37.812 155.04 39.242C154.6 40.65 154.38 41.97 154.38 43.202ZM173.302 35.777C173.258 36.327 173.071 36.965 172.741 37.691C171.905 37.603 171.113 37.559 170.365 37.559H169.771C168.759 42.465 168.253 45.523 168.253 46.733C168.253 47.371 168.385 47.69 168.649 47.69C168.935 47.69 169.672 47.415 170.86 46.865L171.454 47.954C169.496 49.582 167.681 50.396 166.009 50.396C165.239 50.396 164.601 50.154 164.095 49.67C163.611 49.186 163.369 48.548 163.369 47.756C163.369 46.942 163.457 46.029 163.633 45.017C163.831 44.005 164.095 42.773 164.425 41.321C164.755 39.847 164.997 38.659 165.151 37.757C164.337 37.823 163.732 37.889 163.336 37.955C163.292 37.691 163.27 37.339 163.27 36.899C163.27 36.437 163.303 36.063 163.369 35.777H165.448C165.624 34.589 165.712 33.467 165.712 32.411L165.679 31.388V31.289C167.395 30.695 169.012 30.398 170.53 30.398C170.618 30.838 170.662 31.388 170.662 32.048C170.662 32.708 170.475 33.951 170.101 35.777H173.302Z" fill="#F19A56"/>
<defs>
<clipPath id="clip0_140_115">
<rect width="75" height="75" fill="white"/>
</clipPath>
</defs>
</svg>
