<!-- icon666.com - MILLIONS vector ICONS FREE --><svg enable-background="new 0 0 57.655 57.691" viewBox="0 0 57.655 57.691" xmlns="http://www.w3.org/2000/svg"><path d="m42.438 52.507c-.785 0-1.513-.505-1.761-1.293-3.774-12.001-1.911-16.632-.267-20.717.877-2.179 1.634-4.061 1.588-7.068-.016-1.02.798-1.858 1.817-1.874h.029c1.006 0 1.83.808 1.845 1.818.058 3.751-.914 6.167-1.854 8.502-1.55 3.852-3.014 7.49.364 18.231.306.973-.235 2.009-1.208 2.315-.182.058-.369.086-.553.086z"></path><path d="m44.242 57.691h-4.053c-5.66 0-8.531-9.854-8.531-29.291 0-1.02.827-1.846 1.847-1.846s1.846.827 1.846 1.846c0 18.781 2.894 25.6 4.839 25.6h4.053c1.02 0 1.846.826 1.846 1.846s-.827 1.845-1.847 1.845z"></path><path d="m14.895 57.691c-1.02 0-1.846-.826-1.846-1.846 0-16.715 3.786-20.449 7.795-24.403 2.425-2.391 4.932-4.863 7.014-10.872.333-.963 1.382-1.475 2.349-1.14.963.333 1.474 1.385 1.14 2.349-2.363 6.823-5.31 9.728-7.909 12.292-3.741 3.689-6.695 6.604-6.695 21.774-.002 1.02-.829 1.846-1.848 1.846z"></path><path d="m32.698 57.691h-17.803c-5.648 0-10.761-3.928-13.343-10.252-2.552-6.25-2.693-16.33 5.308-24.168 2.737-2.681 6.023-2.249 7.854-.437 1.723 1.704 2.299 4.823-.026 7.248-3.167 3.308-4.827 6.776-4.674 9.768.092 1.801.863 3.367 2.229 4.529.776.66.871 1.825.21 2.602-.66.777-1.825.871-2.602.211-2.161-1.837-3.38-4.311-3.525-7.152-.206-4.018 1.817-8.461 5.695-12.511.786-.82.543-1.627.096-2.069-.532-.527-1.515-.685-2.675.45-6.683 6.548-6.692 14.694-4.472 20.133 2.004 4.908 5.806 7.957 9.925 7.957h17.804c1.02 0 1.847.826 1.847 1.846s-.828 1.845-1.848 1.845z"></path><path d="m29.18 52.506c-.05 0-.099-.002-.148-.006-1.016-.08-1.773-.968-1.694-1.982.006-.077.522-7.765-4.482-10.547-.891-.495-1.212-1.619-.717-2.51.497-.892 1.621-1.213 2.511-.717 7.091 3.941 6.402 13.651 6.369 14.063-.079.966-.886 1.699-1.839 1.699z"></path><path d="m41.172 20.618c-1.02 0-1.846-.827-1.846-1.846s.826-1.846 1.846-1.846c12.791 0 12.791-2.228 12.791-6.667 0-1.28 0-2.488-5.697-2.488-.55 0-1.071-.246-1.422-.669-1.614-1.951-5.614-3.766-8.984-3.35-2.125.259-3.664 1.35-4.573 3.24-2.536 5.271-2.036 7.787-1.669 8.029 0 0 .034.016.128.016h2.642c1.068 0 1.428 0 1.428-5.874 0-1.02.827-1.846 1.847-1.846s1.846.827 1.846 1.846c0 5.133 0 9.566-5.12 9.566h-2.642c-1.399 0-2.573-.643-3.308-1.811-1.47-2.339-.93-6.433 1.521-11.527 1.448-3.011 4.095-4.895 7.452-5.305 4.395-.537 9.154 1.525 11.664 3.995 3.233.038 8.58.502 8.58 6.177-.001 8.036-3.698 10.36-16.484 10.36z"></path><path d="m43.396 11.829c-.66 0-1.31-.26-1.771-.73-.47-.47-.739-1.11-.739-1.77 0-.65.27-1.3.739-1.76.921-.93 2.601-.94 3.53 0 .47.46.74 1.1.74 1.76s-.271 1.31-.74 1.77c-.459.47-1.108.73-1.759.73z"></path></svg>