<svg width="133" height="129" viewBox="0 0 133 129" fill="none" xmlns="http://www.w3.org/2000/svg">
<path fill-rule="evenodd" clip-rule="evenodd" d="M113.508 128.572H19.5054C18.7034 128.572 18.0532 127.925 18.0532 127.12V69.1153C18.0532 68.3136 18.7034 67.6631 19.5051 67.6631C20.3067 67.6631 20.9572 68.3139 20.9572 69.1153L20.9575 125.668H112.055V69.1183C112.055 68.3166 112.706 67.6662 113.508 67.6662C114.312 67.6662 114.959 68.3166 114.959 69.1183L114.96 127.12C114.96 127.925 114.312 128.572 113.508 128.572Z" fill="#FF9A4B"/>
<path fill-rule="evenodd" clip-rule="evenodd" d="M66.5049 2.90366C64.6837 2.90366 62.8655 3.59644 61.4769 4.98199L4.98169 61.4772C2.21088 64.248 2.21088 68.7584 4.98169 71.5323C7.75311 74.3031 12.2629 74.3031 15.0371 71.5323L59.4234 27.1432C61.3106 25.2554 63.8274 24.2181 66.5046 24.2181C69.1849 24.2178 71.6986 25.2554 73.5861 27.1432L117.975 71.5323C120.707 74.2638 125.184 74.297 127.955 71.6081C130.726 68.9186 130.825 64.4447 128.178 61.6346C128.13 61.58 128.082 61.5284 128.03 61.4803L71.5323 4.98199C70.1471 3.59644 68.3255 2.90366 66.5049 2.90366ZM10.0097 76.5146C7.44446 76.5146 4.88197 75.5374 2.9279 73.5861C-0.974431 69.681 -0.977499 63.3285 2.9279 59.4231L59.4234 2.92789C63.3285 -0.974431 69.681 -0.977499 73.5861 2.92789L130.081 59.4231C130.154 59.4958 130.223 59.5682 130.293 59.644C134.023 63.6037 133.881 69.905 129.975 73.6923C126.073 77.4795 119.769 77.4341 115.921 73.5861L71.5323 29.197C70.1952 27.8599 68.4074 27.1221 66.5046 27.1221C64.6018 27.1221 62.817 27.8599 61.4769 29.197L17.0912 73.5861C15.1368 75.5374 12.5746 76.5146 10.0097 76.5146Z" fill="#FF9A4B"/>
<path fill-rule="evenodd" clip-rule="evenodd" d="M51.9907 60.5635C51.0767 60.5635 50.148 60.6724 49.2162 60.8933C43.5626 62.2273 39.6149 67.3578 39.6149 73.3686C39.6149 86.6001 53.1097 100.424 66.5075 113.831C79.9053 100.424 93.3997 86.6001 93.3997 73.3686C93.4 67.3578 89.452 62.2273 83.7984 60.8933C77.5247 59.4111 71.5471 62.9928 67.805 70.4735C67.5601 70.9665 67.0579 71.2783 66.5075 71.2783C65.9571 71.2783 65.4545 70.9665 65.2097 70.4735C62.0244 64.1059 57.2176 60.5635 51.9907 60.5635ZM66.5075 117.337C66.1233 117.337 65.7512 117.183 65.479 116.911C51.3372 102.766 36.7109 88.1427 36.7109 73.3686C36.7112 66.0023 41.5782 59.7106 48.548 58.0648C53.996 56.7793 61.3466 58.5217 66.5075 66.8436C71.6683 58.5247 79.0158 56.7793 84.4669 58.0648C91.4368 59.7106 96.3037 66.0026 96.3037 73.3686C96.304 88.1427 81.6777 102.766 67.5359 116.911C67.2641 117.183 66.8916 117.337 66.5075 117.337Z" fill="#FF9A4B"/>
<path fill-rule="evenodd" clip-rule="evenodd" d="M66.5048 95.6446C68.8188 95.6446 70.1286 96.7457 71.1813 97.629C72.0888 98.3914 72.742 98.9391 74.0278 98.9179C75.5312 98.9176 76.8741 96.7337 76.8741 94.3378C76.8744 88.2151 71.5019 85.4293 66.5076 85.4293C61.5133 85.4293 56.1408 88.2151 56.1408 94.3378C56.1408 96.7156 57.4898 98.8995 58.9723 98.9179C60.2548 98.9391 60.9203 98.3822 61.834 97.617C62.8866 96.7399 64.1995 95.6446 66.5048 95.6446ZM73.9131 101.822C71.6562 101.822 70.3584 100.733 69.3119 99.8525C68.4132 99.0962 67.7628 98.5488 66.5076 98.5488C65.2555 98.5488 64.5986 99.0931 63.6942 99.8463C62.6265 100.739 61.3044 101.852 58.9358 101.822C55.7932 101.782 53.2368 98.4246 53.2368 94.3378C53.2371 86.5817 59.913 82.525 66.5076 82.525C73.1022 82.525 79.7784 86.5817 79.7784 94.3378C79.7784 98.4641 77.2132 101.822 74.0579 101.822C74.0097 101.822 73.9613 101.822 73.9131 101.822Z" fill="#FF9A4B"/>
<path fill-rule="evenodd" clip-rule="evenodd" d="M71.3782 75.2591C70.4884 75.2591 69.7653 75.982 69.7653 76.8714C69.7656 77.7639 70.4884 78.4868 71.3779 78.4868C72.2673 78.4868 72.9932 77.7639 72.9932 76.8714C72.9932 75.982 72.267 75.2591 71.3782 75.2591ZM71.3782 81.3907C68.8884 81.3907 66.8613 79.3639 66.8613 76.8714C66.8613 74.382 68.8881 72.3552 71.3779 72.3552C73.8704 72.3552 75.8972 74.382 75.8972 76.8714C75.8975 79.3639 73.8704 81.3907 71.3782 81.3907Z" fill="#FF9A4B"/>
<path fill-rule="evenodd" clip-rule="evenodd" d="M61.6375 75.2591C60.7484 75.2591 60.0221 75.982 60.0221 76.8714C60.0224 77.7639 60.748 78.4868 61.6375 78.4868C62.5272 78.4868 63.2498 77.7639 63.2498 76.8714C63.2498 75.982 62.5269 75.2591 61.6375 75.2591ZM61.6375 81.3907C59.145 81.3907 57.1182 79.3639 57.1182 76.8714C57.1182 74.382 59.145 72.3552 61.6375 72.3552C64.1273 72.3552 66.1537 74.382 66.1537 76.8714C66.1537 79.3639 64.127 81.3907 61.6375 81.3907Z" fill="#FF9A4B"/>
<path fill-rule="evenodd" clip-rule="evenodd" d="M54.1418 81.1306C53.5214 81.1306 53.0192 81.6359 53.0192 82.256C53.0195 82.876 53.5214 83.3783 54.1415 83.3783C54.7619 83.3783 55.2669 82.876 55.2669 82.256C55.2669 81.6359 54.7616 81.1306 54.1418 81.1306ZM54.1418 86.2822C51.9211 86.2822 50.1152 84.4764 50.1152 82.256C50.1155 80.0325 51.9211 78.2266 54.1415 78.2266C56.365 78.2266 58.1709 80.0325 58.1709 82.256C58.1712 84.4764 56.365 86.2822 54.1418 86.2822Z" fill="#FF9A4B"/>
<path fill-rule="evenodd" clip-rule="evenodd" d="M78.871 81.1306C78.254 81.1306 77.7487 81.6359 77.7487 82.256C77.749 82.876 78.2537 83.3783 78.871 83.3783C79.4914 83.3783 79.9964 82.876 79.9964 82.256C79.9964 81.6359 79.4911 81.1306 78.871 81.1306ZM78.871 86.2822C76.6509 86.2822 74.8447 84.4764 74.8447 82.256C74.8447 80.0325 76.6506 78.2266 78.871 78.2266C81.0945 78.2266 82.9004 80.0325 82.9004 82.256C82.9004 84.4764 81.0945 86.2822 78.871 86.2822Z" fill="#FF9A4B"/>
</svg>
