<svg width="133" height="133" viewBox="0 0 133 133" fill="none" xmlns="http://www.w3.org/2000/svg">
<path d="M103.872 60.0144C93.4133 49.5549 77.023 47.9399 64.7243 56.1567C52.4256 64.3734 47.6437 80.1337 53.3032 93.7991C58.9627 107.464 73.4872 115.229 87.9942 112.345C102.501 109.46 112.95 96.7294 112.951 81.9384C112.975 73.711 109.706 65.8161 103.872 60.0144ZM100.738 100.729C91.773 109.693 77.7239 111.077 67.1828 104.033C56.6416 96.9884 52.5442 83.4792 57.3964 71.7665C62.2486 60.0538 74.699 53.3993 87.1333 55.8733C99.5678 58.3473 108.523 69.2602 108.522 81.9384C108.542 88.9903 105.739 95.7568 100.738 100.729Z" fill="#FF9A4B"/>
<path fill-rule="evenodd" clip-rule="evenodd" d="M81.9475 59.793C76.0709 59.776 70.4322 62.1128 66.2907 66.2818C65.7149 66.8379 65.484 67.6611 65.6868 68.4354C65.8895 69.2097 66.4941 69.8143 67.2683 70.017C68.0426 70.2197 68.8661 69.9888 69.422 69.4131C72.7353 66.078 77.2462 64.2084 81.9475 64.2221C83.1706 64.2221 84.162 63.2307 84.162 62.0076C84.162 60.7844 83.1706 59.793 81.9475 59.793Z" fill="#FF9A4B"/>
<path d="M122.988 110.453C121.868 109.341 120.239 108.911 118.716 109.326L114.415 105.01C122.485 93.7051 124.074 79.01 118.607 66.2417C113.14 53.4733 101.409 44.4814 87.6592 42.5194C88.9032 39.0137 88.9032 35.187 87.6592 31.6814C86.9306 29.6292 85.37 27.9798 83.3613 27.1391C81.3526 26.2983 79.0822 26.3442 77.1092 27.2656C73.1892 29.1697 70.151 32.5075 68.623 36.589C67.504 39.2209 66.9874 42.0695 67.1106 44.9267C64.1785 46.1104 61.3992 47.6421 58.8326 49.4887C57.4482 48.0892 56.1664 46.592 54.9971 45.0087C52.2046 41.3944 49.3101 37.6475 44.3008 37.6475C39.2915 37.6475 36.4037 41.3944 33.6023 45.0197C31.9441 47.4272 29.9068 49.5505 27.57 51.3069C23.5838 53.9643 14.141 61.1108 12.7745 69.9091C12.1655 73.9347 13.3421 78.0257 15.9966 81.1125C19.9474 86.0486 23.6921 87.5126 27.3152 87.5126C29.9937 87.3754 32.6369 86.8426 35.1591 85.9314C37.449 85.1614 39.8071 84.6119 42.2015 84.2905C43.0278 98.7554 51.6534 111.627 64.7179 117.891C77.7822 124.155 93.2193 122.821 105.015 114.408L109.327 118.733C108.924 120.25 109.357 121.866 110.463 122.979L117.771 130.287C119.995 132.589 123.288 133.513 126.385 132.702C129.483 131.892 131.901 129.473 132.712 126.376C133.522 123.279 132.599 119.986 130.296 117.761L122.988 110.453ZM72.7196 38.3119C73.8075 35.3242 75.9756 32.8524 78.7962 31.3847C79.6899 30.9485 80.7234 30.8982 81.6552 31.2452C82.558 31.6714 83.2494 32.4457 83.5709 33.391C84.4695 36.2724 84.2933 39.3817 83.0749 42.143C82.6985 42.143 82.3263 42.0876 81.9477 42.0876C78.4313 42.0974 74.9317 42.5708 71.5392 43.4962C71.6342 41.7132 72.0334 39.9599 72.7196 38.3119ZM33.8631 81.6927C27.9878 83.4843 24.4358 84.5716 19.4551 78.3421C17.5829 76.2239 16.7395 73.3882 17.1498 70.5912C18.2792 63.3342 27.2902 56.8188 30.0273 54.9964C32.7738 52.9824 35.1682 50.5282 37.1138 47.7327C39.8133 44.2248 41.6071 42.0768 44.2999 42.0768C46.9928 42.0768 48.791 44.2248 51.4994 47.7261C52.695 49.3274 53.9886 50.8532 55.3726 52.2947C54.8345 52.7775 54.2786 53.2381 53.7627 53.7518C46.7885 60.7078 42.6614 70.0161 42.1893 79.8548C39.3569 80.1711 36.5659 80.7872 33.8631 81.6927ZM56.8944 106.992C44.942 95.0379 43.0983 76.3057 52.4908 62.251C61.8833 48.1964 79.896 42.7337 95.5129 49.2038C111.13 55.6739 120.001 72.2747 116.702 88.8538C113.403 105.433 98.8517 117.373 81.9477 117.371C72.5452 117.397 63.5236 113.66 56.8944 106.992ZM110.134 110.125C110.659 109.598 111.129 109.034 111.623 108.482L115.153 112.026L112.017 115.157L108.487 111.613C109.038 111.124 109.605 110.652 110.134 110.125ZM127.155 127.146C125.403 128.82 122.645 128.82 120.893 127.146L113.585 119.838L119.847 113.576L127.155 120.884C128.885 122.613 128.885 125.417 127.155 127.146Z" fill="#FF9A4B"/>
<path d="M29.9055 37.6475C36.7352 37.6475 42.0856 29.3807 42.0856 18.8237C42.0856 8.26684 36.7352 0 29.9055 0C23.0758 0 17.7253 8.26706 17.7253 18.8237C17.7253 29.3804 23.0758 37.6475 29.9055 37.6475ZM29.9055 4.42906C33.648 4.42906 37.6564 10.2135 37.6564 18.8237C37.6564 27.434 33.648 33.2184 29.9055 33.2184C26.163 33.2184 22.1546 27.434 22.1546 18.8237C22.1546 10.2135 26.1628 4.42906 29.9055 4.42906Z" fill="#FF9A4B"/>
<path d="M5.23756 27.1371C0.0798444 29.2896 -1.52567 36.8081 1.57902 44.2556C2.84845 47.4609 4.98943 50.247 7.75981 52.2989C9.40764 53.5265 11.3929 54.2184 13.4468 54.2811C14.4298 54.2828 15.4032 54.0886 16.3102 53.7097C19.1056 52.3966 21.0089 49.7151 21.3262 46.643C21.8224 43.2308 21.353 39.7479 19.9708 36.589C16.8707 29.1414 10.3997 24.9868 5.23756 27.1371ZM16.9748 45.8877C16.8408 47.4405 15.9626 48.8323 14.6185 49.6214C13.1109 50.0226 11.5023 49.6668 10.3047 48.667C8.23059 47.0909 6.62907 44.9761 5.674 42.5526C3.41294 37.1337 4.5335 32.2328 6.94964 31.2252C7.301 31.0821 7.6774 31.0105 8.0569 31.0147C10.5173 31.0147 13.9477 33.6323 15.8897 38.2939C16.9383 40.6786 17.3114 43.3054 16.9682 45.8877H16.9748Z" fill="#FF9A4B"/>
<path d="M58.6948 37.6475C65.5245 37.6475 70.8749 29.3807 70.8749 18.8237C70.8749 8.26684 65.5245 0 58.6948 0C51.8651 0 46.5146 8.26684 46.5146 18.8237C46.5146 29.3807 51.8651 37.6475 58.6948 37.6475ZM58.6948 4.42906C62.4373 4.42906 66.4457 10.2135 66.4457 18.8237C66.4457 27.434 62.4373 33.2184 58.6948 33.2184C54.9523 33.2184 50.9439 27.434 50.9439 18.8237C50.9439 10.2135 54.9523 4.42906 58.6948 4.42906Z" fill="#FF9A4B"/>
</svg>
