<svg width="133" height="117" viewBox="0 0 133 117" fill="none" xmlns="http://www.w3.org/2000/svg">
<path d="M62.5734 113.474C63.5005 114.219 64.3733 114.92 65.184 115.575C65.5649 115.883 66.0275 116.037 66.4899 116.037C66.9523 116.037 67.4149 115.883 67.7957 115.575C68.6067 114.92 69.4793 114.219 70.4064 113.474C81.1485 104.841 99.1271 90.3923 113.044 74.1697C130.269 54.0906 136.375 36.8263 131.194 22.8561C126.254 9.53743 113.89 0.575776 99.6947 0.0263719C86.894 -0.467702 74.685 6.00384 66.4899 17.4782C58.2948 6.00384 46.0882 -0.469521 33.2851 0.0266315C19.0899 0.576036 6.72587 9.53743 1.78591 22.8564C-3.39564 36.8266 2.71093 54.0909 19.936 74.17C33.8527 90.3923 51.8313 104.841 62.5734 113.474ZM109.889 71.4637C96.2234 87.3939 78.4323 101.692 67.8027 110.234C67.352 110.597 66.9141 110.949 66.4899 111.29C66.0657 110.949 65.6277 110.596 65.177 110.234C54.5474 101.692 36.7563 87.3939 23.0906 71.4637C17.3918 64.821 12.9761 58.5487 9.84643 52.6655L54.4347 52.4941L58.5265 67.7655C58.7668 68.6619 59.5723 69.2905 60.5005 69.3056C61.4208 69.3235 62.2539 68.7183 62.5227 67.8299L70.9334 40.0591L77.7336 85.742C77.8814 86.7359 78.7194 87.4814 79.7236 87.5131C79.7457 87.5139 79.7678 87.5141 79.7899 87.5141C80.7666 87.5141 81.6158 86.8315 81.8213 85.8706L88.6565 53.9129L95.3376 62.153C95.7777 62.6959 96.4622 62.9811 97.1562 62.9123C97.8516 62.8434 98.466 62.4299 98.791 61.8114L103.544 52.7715H123.077C119.951 58.624 115.554 64.8608 109.889 71.4637ZM5.68265 24.3017C10.0368 12.5624 20.9345 4.66397 33.4459 4.17977C33.8477 4.16392 34.2486 4.15639 34.6494 4.15639C46.4503 4.15639 57.6215 10.8757 64.7243 22.3205C65.1033 22.9312 65.7711 23.3027 66.4899 23.3027C67.2087 23.3027 67.8765 22.9309 68.2555 22.3205C75.5993 10.4874 87.2945 3.70621 99.5339 4.17977C112.045 4.66397 122.943 12.5624 127.297 24.3017C129.907 31.3393 129.168 39.4707 125.112 48.615H102.288C101.516 48.615 100.808 49.0428 100.449 49.726L96.5793 57.0857L89.1469 47.9191C88.643 47.2972 87.8268 47.0206 87.0483 47.2071C86.27 47.3936 85.6681 48.0105 85.5006 48.7932L80.1554 73.785L73.6818 30.2948C73.5386 29.3331 72.7479 28.5993 71.7782 28.5281C70.8077 28.4541 69.9193 29.0677 69.6372 29.9981L60.6555 59.6543L58.0343 49.8718C57.7906 48.9628 56.9674 48.3313 56.027 48.3313C56.0244 48.3313 56.0216 48.3313 56.019 48.3313L7.8226 48.5166C3.80532 39.4123 3.08162 31.3144 5.68265 24.3017Z" fill="#FF9A4B"/>
</svg>
