<svg width="133" height="133" viewBox="0 0 133 133" fill="none" xmlns="http://www.w3.org/2000/svg">
<g clip-path="url(#clip0_128_352)">
<path d="M66.5 0C29.7471 0 0 29.7425 0 66.5C0 103.253 29.7422 133 66.5 133C103.253 133 133 103.258 133 66.5C133 29.7477 103.258 0 66.5 0ZM66.5 125.176C34.1458 125.176 7.82353 98.8542 7.82353 66.5C7.82353 34.1458 34.1458 7.82353 66.5 7.82353C98.8542 7.82353 125.176 34.1458 125.176 66.5C125.176 98.8542 98.8542 125.176 66.5 125.176Z" fill="#FF9A4B"/>
<path d="M74.3236 23.4706H50.853V54.7647H39.1177V62.5882H50.853V70.4118H39.1177V78.2353H50.853V105.618H58.6765V78.2353H82.1471V70.4118H58.6765V62.5882H74.3236C85.1083 62.5882 93.8824 53.8141 93.8824 43.0294C93.8824 32.2447 85.1083 23.4706 74.3236 23.4706ZM74.3236 54.7647H58.6765V31.2941H74.3236C80.7947 31.2941 86.0588 36.5586 86.0588 43.0294C86.0588 49.5003 80.7947 54.7647 74.3236 54.7647Z" fill="#FF9A4B"/>
</g>
<defs>
<clipPath id="clip0_128_352">
<rect width="133" height="133" fill="white"/>
</clipPath>
</defs>
</svg>
