<svg width="45" height="45" viewBox="0 0 45 45" fill="none" xmlns="http://www.w3.org/2000/svg">
<circle cx="22.5" cy="22.5" r="22.5" fill="#F19A56"/>
<path d="M33.532 28.2545C33.532 28.1611 33.4385 28.1611 33.4385 28.0677C33.0649 27.3205 32.2243 26.3865 31.1035 25.3591C30.5431 24.8921 30.2629 24.5185 30.0761 24.3317C29.7959 23.9581 29.7959 23.6779 29.8893 23.3043C29.9827 23.0241 30.3563 22.5571 31.0101 21.7165C31.3837 21.2495 31.5705 20.9693 31.8507 20.6891C33.2517 18.8211 33.9055 17.6068 33.7187 17.0464L33.6254 16.9531C33.532 16.8597 33.4385 16.7663 33.2517 16.7663C33.0649 16.6729 32.7847 16.6729 32.5045 16.7663H28.9553C28.8619 16.7663 28.8619 16.7663 28.6751 16.7663C28.5817 16.7663 28.4883 16.7663 28.4883 16.7663H28.3949H28.3015L28.2081 16.8596C28.1147 16.953 28.1147 16.953 28.1147 17.0464C27.7411 18.0739 27.2741 18.9145 26.8071 19.8485C26.5269 20.3155 26.2467 20.7825 25.9665 21.1561C25.6863 21.5297 25.4995 21.8099 25.3127 21.9967C25.1259 22.1835 24.9391 22.2769 24.8457 22.4637C24.7523 22.5571 24.5655 22.6505 24.5655 22.5571C24.4721 22.5571 24.3787 22.5571 24.3787 22.4637C24.2853 22.3703 24.1919 22.2769 24.0985 22.1835C24.0051 22.0901 24.0051 21.9033 23.9117 21.7165C23.9117 21.5297 23.9117 21.3429 23.9117 21.2495C23.9117 21.1561 23.9117 20.8759 23.9117 20.6891C23.9117 20.4089 23.9117 20.2221 23.9117 20.1287C23.9117 19.8485 23.9117 19.4749 23.9117 19.1013C23.9117 18.7277 23.9117 18.4475 23.9117 18.2607C23.9117 18.0739 23.9117 17.7937 23.9117 17.6069C23.9117 17.3267 23.9117 17.1398 23.9117 17.0464C23.9117 16.953 23.8183 16.7662 23.8183 16.6728C23.7249 16.5794 23.6315 16.486 23.5381 16.3926C23.4447 16.2992 23.2579 16.2992 23.1645 16.2058C22.6975 16.1124 22.1371 16.019 21.4833 16.019C19.9888 16.019 18.9614 16.1124 18.5878 16.2992C18.401 16.3926 18.2142 16.486 18.1208 16.6728C17.934 16.8596 17.934 16.9531 18.0274 16.9531C18.4944 17.0465 18.868 17.2332 19.0548 17.5134L19.1482 17.7003C19.2416 17.7937 19.2416 17.9805 19.335 18.2607C19.4284 18.5409 19.4284 18.8211 19.4284 19.1947C19.4284 19.7551 19.4284 20.3155 19.4284 20.6891C19.4284 21.1561 19.335 21.4363 19.335 21.7165C19.335 21.9967 19.2416 22.1835 19.1482 22.2769C19.0548 22.4637 19.0548 22.5571 18.9614 22.5571C18.9614 22.5571 18.9614 22.6505 18.868 22.6505C18.7746 22.6505 18.6812 22.7439 18.4944 22.7439C18.401 22.7439 18.2142 22.6505 18.1208 22.5571C17.934 22.4637 17.7472 22.2769 17.6538 22.0901C17.467 21.9033 17.2802 21.6231 17.0934 21.2495C16.9066 20.8759 16.6264 20.5023 16.4396 19.9419L16.2528 19.5683C16.1594 19.3815 15.9726 19.0079 15.7858 18.5409C15.599 18.0739 15.4122 17.7003 15.2254 17.2333C15.132 17.0465 15.0386 16.953 14.9452 16.8596H14.8518C14.8518 16.8596 14.7584 16.7663 14.665 16.7663C14.5716 16.7663 14.4782 16.6728 14.3848 16.6728H11.0224C10.6488 16.6728 10.462 16.7662 10.3686 16.8596L10.2751 16.9531C10.2751 16.9531 10.2751 17.0464 10.2751 17.1398C10.2751 17.2333 10.2752 17.3266 10.3686 17.5134C10.8356 18.6343 11.396 19.7551 11.9564 20.8759C12.5168 21.9033 13.0772 22.8373 13.4508 23.4911C13.9178 24.1449 14.2914 24.7987 14.7584 25.3591C15.2254 25.9195 15.5056 26.2931 15.599 26.4799C15.7858 26.6667 15.8792 26.7601 15.9726 26.8535L16.2528 27.1337C16.4396 27.3205 16.7198 27.6007 17.0934 27.8809C17.467 28.1611 17.934 28.4413 18.401 28.7215C18.868 29.0017 19.4284 29.1886 19.9888 29.3754C20.6426 29.5622 21.203 29.6556 21.7634 29.5622H23.1645C23.4447 29.5622 23.6315 29.4688 23.8183 29.282L23.9117 29.1885C23.9117 29.0951 24.0051 29.0951 24.0051 29.0017C24.0051 28.9083 24.0051 28.815 24.0051 28.6281C24.0051 28.2545 24.0051 27.9743 24.0985 27.6941C24.1919 27.4139 24.1919 27.2271 24.2853 27.0403C24.3787 26.8535 24.4721 26.7601 24.5655 26.6667C24.6589 26.5733 24.7523 26.4799 24.7523 26.4799H24.8457C25.0325 26.3865 25.3127 26.4799 25.4995 26.6667C25.7797 26.8535 26.0599 27.1337 26.2467 27.4139C26.4335 27.6941 26.7137 27.9743 27.0873 28.3479C27.4609 28.7215 27.7411 29.0018 27.9279 29.0952L28.2081 29.282C28.3949 29.3754 28.5817 29.4688 28.8619 29.5622C29.1421 29.6556 29.3289 29.6556 29.5157 29.6556L32.6914 29.5622C32.9716 29.5622 33.2517 29.4688 33.4385 29.3754C33.6253 29.282 33.7187 29.1885 33.7187 29.0017C33.7187 28.9083 33.7187 28.7216 33.7187 28.6281C33.5319 28.4413 33.532 28.3479 33.532 28.2545Z" fill="white"/>
</svg>
