<svg width="45" height="45" viewBox="0 0 45 45" fill="none" xmlns="http://www.w3.org/2000/svg">
<circle cx="22.5" cy="22.5" r="22.5" fill="#F19A56"/>
<path d="M32.3023 21.2773C32.3023 20.8409 32.2296 20.3318 32.2296 19.75C32.1568 19.1682 32.0841 18.5864 32.0114 18.0773C31.8659 17.4955 31.6477 17.0591 31.2114 16.6955C30.8477 16.3318 30.3386 16.1136 29.8295 16.0409C28.1568 15.8227 25.6841 15.75 22.3386 15.75C18.9932 15.75 16.4477 15.8227 14.8477 16.0409C14.3386 16.1136 13.8295 16.3318 13.4659 16.6955C13.1023 17.0591 12.8114 17.4955 12.6659 18.0773C12.5205 18.5864 12.4477 19.0955 12.4477 19.75C12.375 20.3318 12.375 20.8409 12.375 21.2773C12.375 21.7136 12.375 22.2227 12.375 22.95C12.375 23.6773 12.375 24.2591 12.375 24.6227C12.375 25.0591 12.4477 25.5682 12.4477 26.15C12.5205 26.7318 12.5932 27.3136 12.6659 27.8227C12.8114 28.4045 13.0295 28.8409 13.4659 29.2045C13.8295 29.5682 14.3386 29.7864 14.8477 29.8591C16.5205 30.0773 18.9932 30.15 22.3386 30.15C25.6841 30.15 28.2295 30.0773 29.8295 29.8591C30.3386 29.7864 30.8477 29.5682 31.2114 29.2045C31.575 28.8409 31.8659 28.4045 32.0114 27.8227C32.1568 27.3136 32.2296 26.8045 32.2296 26.15C32.3023 25.5682 32.3023 25.0591 32.3023 24.6227C32.3023 24.1864 32.3023 23.6773 32.3023 22.95C32.3023 22.2227 32.3023 21.6409 32.3023 21.2773ZM26.1932 23.5318L20.4477 27.0954C20.375 27.1682 20.2296 27.2409 20.0841 27.2409C19.9386 27.2409 19.8659 27.2409 19.7205 27.1682C19.5023 27.0227 19.3568 26.8045 19.3568 26.5136V19.3136C19.3568 19.0227 19.5023 18.8045 19.7205 18.6591C19.9386 18.5136 20.2296 18.5136 20.4477 18.6591L26.1932 22.2227C26.4114 22.3682 26.5568 22.5864 26.5568 22.8045C26.5568 23.0227 26.4114 23.3864 26.1932 23.5318Z" fill="white"/>
</svg>
